<?xml version="1.0" encoding="utf-8"?>
<!-- Generator: Adobe Illustrator 19.1.0, SVG Export Plug-In . SVG Version: 6.00 Build 0)  -->
<svg version="1.0" id="Layer_1" xmlns="http://www.w3.org/2000/svg" xmlns:xlink="http://www.w3.org/1999/xlink" x="0px" y="0px"
	 viewBox="0 0 121.4 116.3" style="enable-background:new 0 0 121.4 116.3;" xml:space="preserve">
<style type="text/css">
	.st0{fill:#DFB77C;}
	.st1{fill:#FFFFFF;}
	.st2{fill:#292E33;}
</style>
<g>
	<circle class="st0" cx="63.2" cy="59.5" r="49.9"/>
	<g>
		<g>
			<g>
				<polygon class="st1" points="63.2,97.1 22,59.7 63.2,59.7 104.3,59.7 				"/>
				<path class="st2" d="M63.2,99.1c-0.5,0-1-0.2-1.3-0.5L20.6,61.2c-0.6-0.6-0.8-1.4-0.5-2.2c0.3-0.8,1-1.3,1.9-1.3h82.4
					c0.8,0,1.6,0.5,1.9,1.3c0.3,0.8,0.1,1.6-0.5,2.2L64.5,98.6C64.1,98.9,63.6,99.1,63.2,99.1z M27.2,61.7l36,32.7l36-32.7H27.2z"/>
			</g>
			<g>
				<polygon class="st1" points="63.2,97.1 45,59.7 63.2,59.7 81.3,59.7 				"/>
				<path class="st2" d="M63.2,99.1L63.2,99.1c-0.8,0-1.5-0.4-1.8-1.1L43.2,60.6c-0.3-0.6-0.3-1.4,0.1-1.9s1-0.9,1.7-0.9h36.3
					c0.7,0,1.3,0.4,1.7,0.9c0.4,0.6,0.4,1.3,0.1,1.9L65,98C64.6,98.7,63.9,99.1,63.2,99.1z M48.2,61.7l15,30.8l15-30.8H48.2z"/>
			</g>
		</g>
		<g>
			<g>
				<polygon class="st1" points="22,59.9 63.2,59.9 104.3,59.9 93,45.3 33.3,45.3 				"/>
				<path class="st2" d="M104.3,61.9H22c-0.8,0-1.5-0.4-1.8-1.1c-0.3-0.7-0.3-1.5,0.2-2.1L31.7,44c0.4-0.5,1-0.8,1.6-0.8H93
					c0.6,0,1.2,0.3,1.6,0.8l11.3,14.6c0.5,0.6,0.6,1.4,0.2,2.1C105.8,61.4,105.1,61.9,104.3,61.9z M26.1,57.9h74.2L92,47.3H34.3
					L26.1,57.9z"/>
			</g>
			<g>
				<polygon class="st1" points="63.2,45.1 45,59.9 63.2,59.9 81.3,59.9 				"/>
				<path class="st2" d="M81.3,61.9H45l-1.3-3.6l18.2-14.8h2.5l18.2,14.8L81.3,61.9z M50.6,57.9h25L63.2,47.7L50.6,57.9z"/>
			</g>
			<g>
				<polygon class="st1" points="44.9,59.9 33.3,45.3 33.3,45.3 22,59.9 				"/>
				<path class="st2" d="M44.9,61.9H22c-0.8,0-1.5-0.4-1.8-1.1c-0.3-0.7-0.3-1.5,0.2-2.1L31.7,44c0.8-1,2.4-1,3.2,0l11.5,14.6
					c0.5,0.6,0.6,1.4,0.2,2.1C46.3,61.4,45.6,61.9,44.9,61.9z M26.1,57.9h14.7l-7.4-9.4L26.1,57.9z"/>
			</g>
			<g>
				<polygon class="st1" points="81.5,59.9 93,45.3 93,45.3 104.3,59.9 				"/>
				<path class="st2" d="M104.3,61.9H81.5c-0.8,0-1.5-0.4-1.8-1.1c-0.3-0.7-0.2-1.5,0.2-2.1L91.4,44c0.8-1,2.4-1,3.2,0l11.3,14.6
					c0.5,0.6,0.6,1.4,0.2,2.1C105.8,61.4,105.1,61.9,104.3,61.9z M85.6,57.9h14.7L93,48.5L85.6,57.9z"/>
			</g>
		</g>
	</g>
	<g>
		<g>
			
				<rect x="69.5" y="14.7" transform="matrix(0.7071 0.7071 -0.7071 0.7071 37.3799 -43.7732)" class="st1" width="4" height="17.1"/>
		</g>
		<g>
			<rect x="63" y="21.2" transform="matrix(0.7071 0.7071 -0.7071 0.7071 37.3786 -43.7728)" class="st1" width="17.1" height="4"/>
		</g>
	</g>
	<g>
		<g>
			
				<rect x="47.4" y="25.7" transform="matrix(0.7071 0.7072 -0.7072 0.7071 36.3901 -25.8313)" class="st1" width="4" height="10.6"/>
		</g>
		<g>
			<rect x="44" y="29" transform="matrix(0.7071 0.7071 -0.7071 0.7071 36.3882 -25.8315)" class="st1" width="10.6" height="4"/>
		</g>
	</g>
</g>
</svg>
