<?xml version="1.0" encoding="utf-8"?>
<!-- Generator: Adobe Illustrator 19.1.0, SVG Export Plug-In . SVG Version: 6.00 Build 0)  -->
<svg version="1.0" id="Layer_1" xmlns="http://www.w3.org/2000/svg" xmlns:xlink="http://www.w3.org/1999/xlink" x="0px" y="0px"
	 viewBox="0 0 121.4 116.3" style="enable-background:new 0 0 121.4 116.3;" xml:space="preserve">
<style type="text/css">
	.st0{fill:#33C1D8;}
	.st1{fill:#FFFFFF;}
	.st2{fill:#292E33;}
	.st3{fill:#B7BEC0;}
</style>
<g>
	<g>
		<g>
			<path class="st0" d="M943.2,785.7l2.6-2.6c9.3-9.3,9.3-24.4,0-33.7l-0.3-0.4c-9.3-9.3-24.4-9.3-33.7,0l-2.6,2.6l-2.6-2.6
				c-9.3-9.3-24.4-9.3-33.7,0l-0.4,0.4c-9.3,9.3-9.3,24.4,0,33.7l2.6,2.6l34.1,34.1L943.2,785.7z"/>
		</g>
		<g>
			<g>
				<g>
					<path class="st1" d="M877.9,777c-6.3-6.3-6.3-16.5,0-22.8l0.3-0.3c3.1-3.1,7.1-4.7,11.4-4.7v4c-3.2,0-6.3,1.3-8.6,3.6l-0.3,0.3
						c-4.7,4.7-4.7,12.4,0,17.1L877.9,777z"/>
				</g>
			</g>
		</g>
	</g>
	<g>
		<g>
			<polyline class="st1" points="903.1,810.3 901.9,811.5 878.8,815.3 884,793.6 885.2,792.4 			"/>
			<polygon class="st2" points="876.2,817.8 882.1,792.6 883.8,790.9 886.6,793.8 885.8,794.6 881.5,812.9 900.9,809.6 901.7,808.9 
				904.5,811.7 902.8,813.3 			"/>
		</g>
		<g>
			
				<rect x="883.5" y="762.7" transform="matrix(-0.7071 0.7071 -0.7071 -0.7071 2118.8008 673.3713)" class="st3" width="72.9" height="25.6"/>
			<path class="st2" d="M936.6,743.5l15.3,15.3l-48.7,48.7l-15.3-15.3L936.6,743.5 M936.6,737.8l-54.4,54.4l21,21l54.4-54.4
				L936.6,737.8L936.6,737.8z"/>
		</g>
		<g>
			<g>
				
					<rect x="921.7" y="741.9" transform="matrix(0.7071 0.7071 -0.7071 0.7071 820.6244 -425.311)" class="st2" width="4" height="72.1"/>
			</g>
			<g>
				
					<rect x="915.8" y="735.9" transform="matrix(0.7071 0.7071 -0.7071 0.7071 814.7178 -422.8647)" class="st2" width="4" height="72.1"/>
			</g>
		</g>
		<g>
			<path class="st2" d="M959.3,756.8l-2.8-2.8l3.8-3.8c-0.1-0.2-0.3-0.4-0.5-0.6l-13.9-13.9c-0.2-0.2-0.4-0.4-0.6-0.5l-3.8,3.8
				l-2.8-2.8l4.3-4.3c0.5-0.5,1.2-0.8,2-0.8h0c1.2,0,2.6,0.7,3.7,1.8l13.9,13.9c1.9,2,2.4,4.4,1,5.7L959.3,756.8z"/>
		</g>
		<g>
			
				<rect x="878.9" y="809.1" transform="matrix(0.707 0.7072 -0.7072 0.707 832.1793 -386.5204)" class="st2" width="7.5" height="4"/>
		</g>
	</g>
</g>
<g>
	<g>
		<g>
			<path class="st0" d="M93.2,70.7l2.6-2.6c9.3-9.3,9.3-24.4,0-33.7L95.4,34c-9.3-9.3-24.4-9.3-33.7,0l-2.6,2.6L56.5,34
				c-9.3-9.3-24.4-9.3-33.7,0l-0.4,0.4c-9.3,9.3-9.3,24.4,0,33.7l2.6,2.6l34.1,34.1L93.2,70.7z"/>
		</g>
		<g>
			<g>
				<g>
					<path class="st1" d="M27.9,62c-6.3-6.3-6.3-16.5,0-22.8l0.3-0.3c3.1-3.1,7.1-4.7,11.4-4.7v4c-3.2,0-6.3,1.3-8.6,3.6L30.7,42
						c-4.7,4.7-4.7,12.4,0,17.1L27.9,62z"/>
				</g>
			</g>
		</g>
	</g>
	<g>
		<g>
			<polyline class="st1" points="53.1,95.3 51.9,96.5 28.8,100.3 34,78.6 35.2,77.4 			"/>
			<polygon class="st2" points="26.2,102.8 32.1,77.6 33.7,75.9 36.6,78.8 35.8,79.6 31.5,97.9 50.9,94.6 51.7,93.9 54.5,96.7 
				52.8,98.3 			"/>
		</g>
		<g>
			
				<rect x="33.5" y="47.7" transform="matrix(-0.7071 0.7071 -0.7071 -0.7071 162.177 53.8103)" class="st3" width="72.9" height="25.6"/>
			<path class="st2" d="M86.6,28.5l15.3,15.3L53.2,92.5L37.9,77.2L86.6,28.5 M86.6,22.8L32.3,77.2l21,21l54.4-54.4L86.6,22.8
				L86.6,22.8z"/>
		</g>
		<g>
			<g>
				
					<rect x="71.7" y="26.9" transform="matrix(0.7071 0.7071 -0.7071 0.7071 66.0838 -33.6889)" class="st2" width="4" height="72.1"/>
			</g>
			<g>
				
					<rect x="65.8" y="20.9" transform="matrix(0.7071 0.7071 -0.7071 0.7071 60.1772 -31.2426)" class="st2" width="4" height="72.1"/>
			</g>
		</g>
		<g>
			<path class="st2" d="M109.3,41.8l-2.8-2.8l3.8-3.8c-0.1-0.2-0.3-0.4-0.5-0.6L95.9,20.7c-0.2-0.2-0.4-0.4-0.6-0.5L91.5,24
				l-2.8-2.8l4.3-4.3c0.5-0.5,1.2-0.8,2-0.8h0c1.2,0,2.6,0.7,3.7,1.8l13.9,13.9c1.9,2,2.4,4.4,1,5.7L109.3,41.8z"/>
		</g>
		<g>
			<rect x="28.9" y="94.1" transform="matrix(0.707 0.7072 -0.7072 0.707 77.5341 5.1108)" class="st2" width="7.5" height="4"/>
		</g>
	</g>
</g>
</svg>
