<?xml version="1.0" encoding="utf-8"?>
<!-- Generator: Adobe Illustrator 19.1.0, SVG Export Plug-In . SVG Version: 6.00 Build 0)  -->
<svg version="1.0" id="Layer_1" xmlns="http://www.w3.org/2000/svg" xmlns:xlink="http://www.w3.org/1999/xlink" x="0px" y="0px"
	 viewBox="0 0 121.4 116.3" style="enable-background:new 0 0 121.4 116.3;" xml:space="preserve">
<style type="text/css">
	.st0{fill:#4CBD99;}
	.st1{fill:#292E33;}
	.st2{fill:#FFFFFF;}
	.st3{fill:#FDBA31;}
</style>
<g>
	<circle class="st0" cx="62.4" cy="56.6" r="44.8"/>
	<g>
		<polygon class="st1" points="85.9,107 61.6,70.7 37.4,107 34.1,104.8 60,66 63.3,66 89.2,104.8 		"/>
	</g>
	<g>
		<rect x="59.6" y="68" class="st1" width="4" height="37.7"/>
	</g>
	<g>
		<path class="st1" d="M61.4,68.1c-1.2,0-2.3-0.3-3.3-0.8c-1.7-0.9-3-2.4-3.6-4.3l3.8-1.2c0.3,0.8,0.8,1.5,1.6,1.9
			c0.8,0.4,1.6,0.5,2.5,0.2c1.7-0.5,2.7-2.4,2.1-4.1l3.8-1.2c1.2,3.8-0.9,7.9-4.7,9.1C62.9,68,62.1,68.1,61.4,68.1z"/>
	</g>
	<g>
		<g>
			
				<rect x="31.2" y="40" transform="matrix(0.9359 -0.3523 0.3523 0.9359 -13.0662 26.1866)" class="st2" width="68.5" height="17.9"/>
			<path class="st1" d="M35.3,72l-7.7-20.5L95.5,26l7.7,20.5L35.3,72z M32.8,53.8l4.9,13L98,44.1l-4.9-13L32.8,53.8z"/>
		</g>
		<g>
			
				<rect x="97.1" y="24.2" transform="matrix(-0.9359 0.3523 -0.3523 -0.9359 210.9648 31.5743)" class="st2" width="11" height="21.5"/>
			<path class="st1" d="M100.1,49.6l-9-23.9l14-5.3l9,23.9L100.1,49.6z M96.3,28l6.2,16.4l6.6-2.5l-6.2-16.4L96.3,28z"/>
		</g>
		<g>
			
				<rect x="15.4" y="58.9" transform="matrix(-0.9359 0.3523 -0.3523 -0.9359 70.4657 115.805)" class="st2" width="18.5" height="10.8"/>
			<path class="st1" d="M16.8,75.2l-5.2-13.8l21.1-7.9l5.2,13.8L16.8,75.2z M16.7,63.7l2.4,6.3l13.6-5.1l-2.4-6.3L16.7,63.7z"/>
		</g>
		<g>
			<line class="st2" x1="56" y1="55" x2="104.2" y2="36.9"/>
			
				<rect x="78.1" y="20.2" transform="matrix(0.3525 0.9358 -0.9358 0.3525 94.8509 -45.246)" class="st1" width="4" height="51.5"/>
		</g>
	</g>
	<g>
		<rect x="61.7" y="24.9" class="st2" width="4" height="4"/>
	</g>
	<g>
		<rect x="93.7" y="57.9" class="st2" width="4" height="4"/>
	</g>
	<g>
		<rect x="80.4" y="73.1" class="st2" width="4" height="4"/>
	</g>
	<g>
		<rect x="36.4" y="77.6" class="st2" width="4" height="4"/>
	</g>
	<path class="st3" d="M40.3,32c-5.3,0-9.6-4.3-9.6-9.6c0-4.4,3-8.1,7-9.3c-0.5,0-0.9-0.1-1.4-0.1C29,13.1,23,19,23,26.4
		c0,7.4,6,13.3,13.3,13.3c7.4,0,13.3-6,13.3-13.3c0-0.5,0-0.9-0.1-1.4C48.4,29.1,44.7,32,40.3,32z"/>
</g>
</svg>
